HIERARCHY
ROOT pelvis
{
  OFFSET 0 100 0
  CHANNELS 6 Xposition Yposition Zposition Zrotation Xrotation Yrotation
  JOINT pelvis_right_femur
  {
    OFFSET -10.78128 -3.44521 -0.5502486
    CHANNELS 3 Zrotation Xrotation Yrotation
    JOINT right_femur_tibia
    {
      OFFSET -0.8047443 -44.0398 -0.1307829
      CHANNELS 3 Zrotation Xrotation Yrotation
      JOINT right_tibia_foot
      {
        OFFSET 3.006224 -47.83518 -5
        CHANNELS 3 Zrotation Xrotation Yrotation
        End Site
        {
          OFFSET 0 -5 15
        }
      }
    }
  }
  JOINT pelvis_left_femur
  {
    OFFSET 10.78128 -3.44521 -0.5502486
    CHANNELS 3 Zrotation Xrotation Yrotation
    JOINT left_femur_tibia
    {
      OFFSET 0.8047443 -44.0398 -0.1307829
      CHANNELS 3 Zrotation Xrotation Yrotation
      JOINT left_tibia_foot
      {
        OFFSET -4.370144 -48.10324 -4.275266
        CHANNELS 3 Zrotation Xrotation Yrotation
        End Site
        {
          OFFSET 0 -5 15
        }
      }
    }
  }
  JOINT pelvis_spine1
  {
    OFFSET 0 6.468898 -3.129235
    CHANNELS 3 Zrotation Xrotation Yrotation
    JOINT spine1
    {
      OFFSET 0 23.15396 4.99043
      CHANNELS 3 Zrotation Xrotation Yrotation
      JOINT spine2
      {
        OFFSET 0 20.79997 -5.064912
        CHANNELS 3 Zrotation Xrotation Yrotation
        JOINT neck
        {
          OFFSET 0 14.38658 9.616178
          CHANNELS 3 Zrotation Xrotation Yrotation
          End Site
          {
            OFFSET 0 20 0
          }
        }
      }
      JOINT right_manubrium
      {
        OFFSET -5.722621 16.35077 3.967754
        CHANNELS 3 Zrotation Xrotation Yrotation
        JOINT right_clavicle
        {
          OFFSET -13.16364 1.694482 -4.693211
          CHANNELS 3 Zrotation Xrotation Yrotation
          JOINT right_humerus
          {
            OFFSET -28.5034 -0.3100689 -2.792744
            CHANNELS 3 Zrotation Xrotation Yrotation
            JOINT right_radius
            {
              OFFSET -25.15693 0.02248979 -1.271978
              CHANNELS 3 Zrotation Xrotation Yrotation
              End Site
              {
                OFFSET -15 0 0
              }
            }
          }
        }
      }
      JOINT left_manubrium
      {
        OFFSET 5.722621 16.35077 3.967754
        CHANNELS 3 Zrotation Xrotation Yrotation
        JOINT left_clavicle
        {
          OFFSET 13.16364 1.694482 -4.693211
          CHANNELS 3 Zrotation Xrotation Yrotation
          JOINT left_humerus
          {
            OFFSET 29.39168 -1.063119 -2.237045
            CHANNELS 3 Zrotation Xrotation Yrotation
            JOINT left_radius
            {
              OFFSET 24.59957 -0.9528479 0.9047498
              CHANNELS 3 Zrotation Xrotation Yrotation
              End Site
              {
                OFFSET 15 -0 -0
              }
            }
          }
        }
      }
    }
  }
}
MOTION
Frames: 11
Frame Time: 0.0416666666667
0 103.5113 0 1.602991 -3.480711 0.08397433 1.121074 -10.48684 6.735846 -0 39.88319 -0 -5.96734 -17.26353 -3.996946 -6.714419 12.72788 -23.75096 -0 6.182867 -0 0.4983594 -18.16117 22.85182 -0.020241 -1.659441 5.400597 -0.6724129 7.889428 -6.765978 1.839485 22.32069 7.70249 5.320335 -22.26287 8.545712 5.33621 -19.64968 9.664564 88.82913 36.26831 -23.32189 -0 0 18.25651 -8.159748 9.515796 1.493643 7.34235 -21.33164 -2.93892 -101.421 42.44253 29.74317 0 0 -26.22692 -9.446498 17.18478 29.27184
0.1983005 103.66 1.267914 0.6499756 -2.967931 -0.1188305 2.64994 -13.88778 8.291076 -0 41.64181 -0 -5.62948 -16.39776 -5.031631 -5.960732 12.71522 -23.63465 -0 6.871225 -0 -0.8809359 -19.67668 22.89253 0.07203207 -1.598613 5.284683 -0.5724768 7.87071 -6.873877 1.803363 22.22042 7.811063 5.371172 -22.32507 8.587345 5.429093 -19.39576 9.720425 88.93926 36.22345 -23.57454 -0 0 17.84635 -8.060357 9.622796 1.532947 7.429701 -21.47157 -2.88457 -101.0584 42.22273 29.24139 0 0 -26.37582 -9.223574 17.24604 28.97557
0.3891422 103.6255 2.792807 0.007284058 -1.947281 -0.2832367 3.908354 -18.80049 7.948789 -0 38.82743 -0 -6.105283 -14.0756 -4.807021 -5.580694 12.79474 -22.67472 -0 6.662181 -0 -0.347817 -21.19029 22.4165 -0.1172476 -1.27698 4.943001 -0.09549599 7.715539 -7.027691 1.562442 22.16698 7.949649 5.306441 -22.50123 8.438127 5.62219 -18.62121 10.05877 88.42168 36.59251 -22.95938 -0 0 16.47611 -8.871282 10.1162 2.690665 7.046355 -21.38617 -2.783314 -99.16207 40.72395 27.33544 0 0 -25.8785 -8.170513 17.10431 27.27066
0.5626868 103.4025 4.552762 -0.5132597 -0.9407398 -0.3894358 4.943355 -22.96294 7.828153 -0 36.03175 -0 -6.326965 -12.15733 -4.650582 -5.264222 12.8211 -22 -0 6.473481 -0 -0.4051864 -22.66115 21.83186 -0.2469448 -1.073851 4.724326 0.2085659 7.629988 -7.127992 1.411796 22.12506 8.0247 5.263722 -22.59841 8.324222 5.738951 -18.1384 10.27464 88.0771 36.78192 -22.55166 -0 0 15.63136 -9.425965 10.41146 3.449206 6.802172 -21.33029 -2.731178 -97.9822 39.72078 26.13729 0 0 -25.55969 -7.524939 16.95983 26.19581
0.711201 102.9517 6.631732 -0.8599206 0.2115777 -0.3894568 5.709165 -26.93939 7.403537 -0 32.10767 -0 -6.506128 -10.12176 -4.259293 -5.093206 12.90986 -21.26725 -0 6.219146 -0 -0.3594297 -23.98334 21.04264 -0.4030666 -0.8809709 4.529233 0.4964068 7.560772 -7.209775 1.266805 22.09608 8.071822 5.207903 -22.66992 8.187876 5.837356 -17.70086 10.4865 87.69126 36.96445 -22.06842 -0 0 14.86012 -10.06007 10.69909 4.24076 6.537567 -21.25013 -2.690713 -96.85406 38.6863 25.01323 0 0 -25.19496 -6.904033 16.77143 25.14105
0.828575 102.2733 9.093114 -1.092978 1.396949 -0.2575923 6.241333 -30.43927 6.851418 -0 27.72162 -0 -6.602924 -8.155887 -3.798084 -4.99586 13.11341 -20.57354 -0 6.160018 -0 -0.5340277 -25.08276 20.03547 -0.559396 -0.7197637 4.372112 0.7389332 7.513045 -7.270799 1.144282 22.07732 8.092831 5.150065 -22.71238 8.050833 5.911895 -17.34856 10.6704 87.32228 37.10714 -21.59324 -0 0 14.23894 -10.67789 10.94462 4.961103 6.293014 -21.16298 -2.664178 -95.90152 37.75344 24.07566 0 0 -24.83973 -6.388383 16.57106 24.23879
0.9122845 101.4032 12.02109 -1.256324 2.545026 0.02289269 6.56729 -33.31779 6.177095 -0 23.17373 -0 -6.652423 -6.298285 -3.317838 -4.931077 13.51386 -19.87611 -0 6.564904 -0 -0.9885781 -25.79028 18.75452 -0.7202468 -0.5790945 4.241059 0.9530083 7.481869 -7.317483 1.035727 22.06577 8.094788 5.088454 -22.73256 7.910522 5.970868 -17.05176 10.83875 86.95551 37.22491 -21.10987 -0 0 13.71425 -11.30661 11.1707 5.649383 6.057409 -21.06875 -2.64589 -95.05281 36.86881 23.25175 0 0 -24.47815 -5.934871 16.35907 23.42397
0.9655159 100.424 15.50569 -1.417091 3.539205 0.4508049 6.762213 -35.32431 5.465605 -0 19.01077 -0 -6.689369 -4.691169 -2.909618 -4.833137 14.15818 -19.15423 -0 7.781023 -0 -1.853147 -25.88614 17.15096 -0.882413 -0.4576141 4.132466 1.141526 7.465248 -7.352661 0.9403006 22.0596 8.081681 5.024453 -22.73387 7.770401 6.0172 -16.80366 10.99263 86.59642 37.31858 -20.6286 -0 0 13.27474 -11.93773 11.38041 6.302564 5.83308 -20.97045 -2.634132 -94.29789 36.03496 22.52836 0 0 -24.11484 -5.53937 16.14201 22.69216
0.9978411 99.47024 19.6347 -1.645207 4.251124 1.000636 6.941705 -36.18352 4.829187 -0 15.82003 -0 -6.753278 -3.509392 -2.656994 -4.633086 15.02012 -18.35429 -0 10.20822 -0 -3.205077 -25.0893 15.20745 -1.045253 -0.3524004 4.042387 1.309256 7.461645 -7.378954 0.8559073 22.05725 8.056715 4.958247 -22.71908 7.631557 6.053783 -16.59509 11.13509 86.24502 37.39169 -20.15127 -0 0 12.90391 -12.57338 11.58018 6.92736 5.618772 -20.86967 -2.627294 -93.61745 35.24083 21.88445 0 0 -23.74944 -5.189986 15.92203 22.02672
1.023829 98.71889 24.46278 -1.997743 4.560001 1.612043 7.243959 -35.62663 4.405858 -0 14.1444 -0 -6.878016 -2.943849 -2.623443 -4.271607 15.90835 -17.40757 -0 14.2366 -0 -5.046098 -23.12065 13.00158 -1.207838 -0.2617488 3.968392 1.459006 7.470075 -7.398041 0.7813788 22.0577 8.0222 4.890082 -22.69015 7.495327 6.082429 -16.42045 11.26776 85.90267 37.44667 -19.68085 -0 0 12.59146 -13.21312 11.77407 7.526392 5.414125 -20.76768 -2.624503 -93.00012 34.48127 21.30738 0 0 -23.38306 -4.879398 15.70108 21.418
1.057425 98.35367 29.96072 -2.484276 4.397403 2.182125 7.756587 -33.48409 4.290995 -0 14.22295 -0 -7.08929 -3.111556 -2.809228 -3.73267 16.3679 -16.23762 -0 20.13284 -0 -7.233709 -19.82961 10.76963 -1.369594 -0.1842483 3.908862 1.592904 7.489997 -7.411035 0.7157599 22.06023 7.979868 4.819999 -22.64845 7.362699 6.104405 -16.27544 11.39203 85.57015 37.48596 -19.21889 -0 0 12.3292 -13.85783 11.96595 8.102424 5.218547 -20.6654 -2.625184 -92.43647 33.75109 20.78712 0 0 -23.01626 -4.600881 15.48016 20.85728
